<mxfile host="app.diagrams.net" modified="2020-09-03T00:20:05.038Z" agent="5.0 (Windows NT 10.0; Win64; x64) AppleWebKit/537.36 (KHTML, like Gecko) Chrome/85.0.4183.83 Safari/537.36" etag="b5_YBg2-CNl5Zti4w1DK" version="13.6.6" type="github">
  <diagram name="Page-1" id="c7558073-3199-34d8-9f00-42111426c3f3">
    <mxGraphModel dx="2248" dy="800" grid="1" gridSize="10" guides="1" tooltips="1" connect="1" arrows="1" fold="1" page="1" pageScale="1" pageWidth="826" pageHeight="1169" background="#ffffff" math="0" shadow="0">
      <root>
        <mxCell id="0" />
        <mxCell id="1" parent="0" />
        <mxCell id="USOq1w8gxivl_0exyOVE-112" style="edgeStyle=orthogonalEdgeStyle;rounded=1;orthogonalLoop=1;jettySize=auto;html=1;exitX=0.25;exitY=1;exitDx=0;exitDy=0;entryX=0.25;entryY=0;entryDx=0;entryDy=0;strokeColor=#000000;strokeWidth=2;fontSize=13;" edge="1" parent="1" source="2" target="5">
          <mxGeometry relative="1" as="geometry" />
        </mxCell>
        <mxCell id="USOq1w8gxivl_0exyOVE-113" value="Sulfur" style="edgeLabel;html=1;align=center;verticalAlign=middle;resizable=0;points=[];fontSize=13;" vertex="1" connectable="0" parent="USOq1w8gxivl_0exyOVE-112">
          <mxGeometry x="-0.3882" y="-37" relative="1" as="geometry">
            <mxPoint x="9.5" y="11" as="offset" />
          </mxGeometry>
        </mxCell>
        <mxCell id="2" value="&lt;p style=&quot;margin: 0px ; margin-top: 4px ; text-align: center ; text-decoration: underline&quot;&gt;&lt;strong&gt;Ore Refinery&lt;/strong&gt;&lt;/p&gt;&lt;p style=&quot;margin: 0px ; margin-left: 8px&quot;&gt;Link&lt;/p&gt;&lt;p style=&quot;margin: 0px ; margin-left: 8px&quot;&gt;Todo: Acids&lt;/p&gt;" style="verticalAlign=middle;align=center;overflow=fill;fontSize=12;fontFamily=Helvetica;html=1;rounded=1;fontStyle=1;strokeWidth=3;fillColor=#E6FFCC" parent="1" vertex="1">
          <mxGeometry x="286" y="10" width="110" height="90" as="geometry" />
        </mxCell>
        <mxCell id="3" value="Mines" style="whiteSpace=wrap;align=center;verticalAlign=middle;fontStyle=1;strokeWidth=3;fillColor=#FFFFCC" parent="1" vertex="1">
          <mxGeometry x="35" y="10" width="90" height="60" as="geometry" />
        </mxCell>
        <mxCell id="5" value="Production Hub + Science Labs" style="shape=process;whiteSpace=wrap;align=center;verticalAlign=middle;size=0.0475;fontStyle=1;strokeWidth=3;fillColor=#FFCCCC" parent="1" vertex="1">
          <mxGeometry x="159.99999999999991" y="271" width="400" height="50" as="geometry" />
        </mxCell>
        <mxCell id="USOq1w8gxivl_0exyOVE-107" style="edgeStyle=orthogonalEdgeStyle;rounded=1;orthogonalLoop=1;jettySize=auto;html=1;exitX=0;exitY=1;exitDx=0;exitDy=0;entryX=0.5;entryY=0;entryDx=0;entryDy=0;fontSize=13;strokeWidth=2;" edge="1" parent="1" source="6" target="8">
          <mxGeometry relative="1" as="geometry" />
        </mxCell>
        <mxCell id="USOq1w8gxivl_0exyOVE-108" value="Iron" style="edgeLabel;html=1;align=center;verticalAlign=middle;resizable=0;points=[];fontSize=13;" vertex="1" connectable="0" parent="USOq1w8gxivl_0exyOVE-107">
          <mxGeometry x="0.1146" y="-4" relative="1" as="geometry">
            <mxPoint as="offset" />
          </mxGeometry>
        </mxCell>
        <mxCell id="USOq1w8gxivl_0exyOVE-110" style="edgeStyle=orthogonalEdgeStyle;rounded=1;orthogonalLoop=1;jettySize=auto;html=1;exitX=0;exitY=0.75;exitDx=0;exitDy=0;strokeColor=#000000;strokeWidth=2;fontSize=13;entryX=0.75;entryY=0;entryDx=0;entryDy=0;" edge="1" parent="1" source="6" target="5">
          <mxGeometry relative="1" as="geometry" />
        </mxCell>
        <mxCell id="USOq1w8gxivl_0exyOVE-111" value="27 Plates+Coils" style="edgeLabel;html=1;align=center;verticalAlign=middle;resizable=0;points=[];fontSize=13;" vertex="1" connectable="0" parent="USOq1w8gxivl_0exyOVE-110">
          <mxGeometry x="-0.401" y="2" relative="1" as="geometry">
            <mxPoint as="offset" />
          </mxGeometry>
        </mxCell>
        <mxCell id="6" value="&lt;p style=&quot;margin: 0px ; margin-top: 4px ; text-align: center ; text-decoration: underline&quot;&gt;&lt;strong&gt;Plate+Coil Production&lt;br&gt;&lt;/strong&gt;&lt;/p&gt;&lt;p style=&quot;margin: 0px ; margin-top: 4px ; text-align: center ; text-decoration: underline&quot;&gt;&lt;strong&gt;&lt;br&gt;&lt;/strong&gt;&lt;/p&gt;&lt;hr&gt;&lt;p style=&quot;margin: 0px ; margin-left: 8px&quot;&gt;TODO: Jimmy fragen&lt;/p&gt;" style="verticalAlign=middle;align=center;overflow=fill;fontSize=12;fontFamily=Helvetica;html=1;rounded=1;fontStyle=1;strokeWidth=3;fillColor=#E6FFCC" parent="1" vertex="1">
          <mxGeometry x="640" y="2.5" width="170" height="105" as="geometry" />
        </mxCell>
        <mxCell id="USOq1w8gxivl_0exyOVE-116" style="edgeStyle=orthogonalEdgeStyle;rounded=1;orthogonalLoop=1;jettySize=auto;html=1;exitX=0;exitY=0.25;exitDx=0;exitDy=0;strokeColor=#000000;strokeWidth=2;fontSize=13;" edge="1" parent="1" source="8" target="5">
          <mxGeometry relative="1" as="geometry" />
        </mxCell>
        <mxCell id="USOq1w8gxivl_0exyOVE-117" value="Wood" style="edgeLabel;html=1;align=center;verticalAlign=middle;resizable=0;points=[];fontSize=13;" vertex="1" connectable="0" parent="USOq1w8gxivl_0exyOVE-116">
          <mxGeometry x="-0.4846" y="-3" relative="1" as="geometry">
            <mxPoint as="offset" />
          </mxGeometry>
        </mxCell>
        <mxCell id="8" value="&lt;p style=&quot;margin: 0px ; margin-top: 4px ; text-align: center ; text-decoration: underline&quot;&gt;&lt;/p&gt;&lt;p style=&quot;margin: 0px ; margin-left: 8px&quot;&gt;Greenhouses&lt;/p&gt;&lt;p style=&quot;margin: 0px ; margin-left: 8px&quot;&gt;&lt;br&gt;&lt;/p&gt;&lt;p style=&quot;margin: 0px ; margin-left: 8px&quot;&gt;&lt;br&gt;&lt;/p&gt;" style="verticalAlign=middle;align=center;overflow=fill;fontSize=12;fontFamily=Helvetica;html=1;rounded=1;fontStyle=1;strokeWidth=3;fillColor=#E6FFCC" parent="1" vertex="1">
          <mxGeometry x="530" y="440" width="110" height="90" as="geometry" />
        </mxCell>
        <mxCell id="USOq1w8gxivl_0exyOVE-114" style="edgeStyle=orthogonalEdgeStyle;rounded=1;orthogonalLoop=1;jettySize=auto;html=1;exitX=1.018;exitY=0.564;exitDx=0;exitDy=0;entryX=0.25;entryY=1;entryDx=0;entryDy=0;strokeColor=#000000;strokeWidth=2;fontSize=13;exitPerimeter=0;" edge="1" parent="1" source="10" target="6">
          <mxGeometry relative="1" as="geometry" />
        </mxCell>
        <mxCell id="USOq1w8gxivl_0exyOVE-124" value="Coolant" style="edgeLabel;html=1;align=center;verticalAlign=middle;resizable=0;points=[];fontSize=13;" vertex="1" connectable="0" parent="USOq1w8gxivl_0exyOVE-114">
          <mxGeometry x="-0.2821" y="2" relative="1" as="geometry">
            <mxPoint y="1" as="offset" />
          </mxGeometry>
        </mxCell>
        <mxCell id="USOq1w8gxivl_0exyOVE-127" style="edgeStyle=orthogonalEdgeStyle;rounded=1;orthogonalLoop=1;jettySize=auto;html=1;exitX=0;exitY=0.75;exitDx=0;exitDy=0;strokeColor=#000000;strokeWidth=2;fontSize=13;" edge="1" parent="1" source="10" target="2">
          <mxGeometry relative="1" as="geometry">
            <Array as="points">
              <mxPoint x="138" y="653" />
              <mxPoint x="138" y="230" />
              <mxPoint x="341" y="230" />
            </Array>
          </mxGeometry>
        </mxCell>
        <mxCell id="USOq1w8gxivl_0exyOVE-129" value="Acid Gas" style="edgeLabel;html=1;align=center;verticalAlign=middle;resizable=0;points=[];fontSize=13;" vertex="1" connectable="0" parent="USOq1w8gxivl_0exyOVE-127">
          <mxGeometry x="-0.3022" y="4" relative="1" as="geometry">
            <mxPoint x="1" as="offset" />
          </mxGeometry>
        </mxCell>
        <mxCell id="USOq1w8gxivl_0exyOVE-133" style="edgeStyle=orthogonalEdgeStyle;rounded=1;orthogonalLoop=1;jettySize=auto;html=1;exitX=0.25;exitY=0;exitDx=0;exitDy=0;entryX=0.165;entryY=1.02;entryDx=0;entryDy=0;entryPerimeter=0;strokeColor=#000000;strokeWidth=2;fontSize=13;" edge="1" parent="1" source="10" target="5">
          <mxGeometry relative="1" as="geometry" />
        </mxCell>
        <mxCell id="USOq1w8gxivl_0exyOVE-134" value="Fuel" style="edgeLabel;html=1;align=center;verticalAlign=middle;resizable=0;points=[];fontSize=13;" vertex="1" connectable="0" parent="USOq1w8gxivl_0exyOVE-133">
          <mxGeometry x="0.1788" y="4" relative="1" as="geometry">
            <mxPoint x="-16" y="-39.5" as="offset" />
          </mxGeometry>
        </mxCell>
        <mxCell id="USOq1w8gxivl_0exyOVE-135" style="edgeStyle=orthogonalEdgeStyle;rounded=1;orthogonalLoop=1;jettySize=auto;html=1;exitX=1;exitY=0.25;exitDx=0;exitDy=0;entryX=0.79;entryY=1;entryDx=0;entryDy=0;entryPerimeter=0;strokeColor=#000000;strokeWidth=2;fontSize=13;" edge="1" parent="1" source="10" target="5">
          <mxGeometry relative="1" as="geometry" />
        </mxCell>
        <mxCell id="USOq1w8gxivl_0exyOVE-136" value="Plastic" style="edgeLabel;html=1;align=center;verticalAlign=middle;resizable=0;points=[];fontSize=13;" vertex="1" connectable="0" parent="USOq1w8gxivl_0exyOVE-135">
          <mxGeometry x="0.5854" relative="1" as="geometry">
            <mxPoint as="offset" />
          </mxGeometry>
        </mxCell>
        <mxCell id="10" value="&lt;p style=&quot;margin: 0px ; margin-top: 4px ; text-align: center ; text-decoration: underline&quot;&gt;&lt;strong&gt;Oil Refining&lt;/strong&gt;&lt;/p&gt;&lt;hr&gt;&lt;p style=&quot;margin: 0px ; margin-left: 8px&quot;&gt;&lt;br&gt;&lt;/p&gt;" style="verticalAlign=middle;align=center;overflow=fill;fontSize=12;fontFamily=Helvetica;html=1;rounded=1;fontStyle=1;strokeWidth=3;fillColor=#E6FFCC" parent="1" vertex="1">
          <mxGeometry x="300" y="570" width="110" height="110" as="geometry" />
        </mxCell>
        <mxCell id="36" value="" style="edgeStyle=none;noEdgeStyle=1;strokeWidth=2;entryX=0;entryY=0.333;entryDx=0;entryDy=0;entryPerimeter=0;" parent="1" source="3" target="2" edge="1">
          <mxGeometry width="100" height="100" relative="1" as="geometry">
            <mxPoint x="20" y="250" as="sourcePoint" />
            <mxPoint x="240" y="44" as="targetPoint" />
          </mxGeometry>
        </mxCell>
        <mxCell id="USOq1w8gxivl_0exyOVE-105" value="6 Hybrid Ores" style="edgeLabel;html=1;align=center;verticalAlign=middle;resizable=0;points=[];fontSize=13;" vertex="1" connectable="0" parent="36">
          <mxGeometry x="-0.3913" y="1" relative="1" as="geometry">
            <mxPoint as="offset" />
          </mxGeometry>
        </mxCell>
        <mxCell id="USOq1w8gxivl_0exyOVE-98" value="" style="edgeStyle=orthogonalEdgeStyle;strokeWidth=2;entryX=0;entryY=0.25;entryDx=0;entryDy=0;exitX=1;exitY=0.25;exitDx=0;exitDy=0;" edge="1" parent="1" source="2" target="6">
          <mxGeometry width="100" height="100" relative="1" as="geometry">
            <mxPoint x="399" y="39.52344660194174" as="sourcePoint" />
            <mxPoint x="530" y="42" as="targetPoint" />
          </mxGeometry>
        </mxCell>
        <mxCell id="USOq1w8gxivl_0exyOVE-106" value="16 Single Ores" style="edgeLabel;html=1;align=center;verticalAlign=middle;resizable=0;points=[];fontSize=13;" vertex="1" connectable="0" parent="USOq1w8gxivl_0exyOVE-98">
          <mxGeometry x="0.0559" y="21" relative="1" as="geometry">
            <mxPoint x="-21" y="20" as="offset" />
          </mxGeometry>
        </mxCell>
        <mxCell id="USOq1w8gxivl_0exyOVE-118" style="edgeStyle=orthogonalEdgeStyle;rounded=1;orthogonalLoop=1;jettySize=auto;html=1;exitX=0.5;exitY=1;exitDx=0;exitDy=0;strokeColor=#000000;strokeWidth=2;fontSize=13;" edge="1" parent="1" source="USOq1w8gxivl_0exyOVE-99" target="10">
          <mxGeometry relative="1" as="geometry" />
        </mxCell>
        <mxCell id="USOq1w8gxivl_0exyOVE-119" value="Coal" style="edgeLabel;html=1;align=center;verticalAlign=middle;resizable=0;points=[];fontSize=13;" vertex="1" connectable="0" parent="USOq1w8gxivl_0exyOVE-118">
          <mxGeometry x="0.5532" relative="1" as="geometry">
            <mxPoint as="offset" />
          </mxGeometry>
        </mxCell>
        <mxCell id="USOq1w8gxivl_0exyOVE-99" value="Coal Source&#xa;(Mining?)" style="whiteSpace=wrap;align=center;verticalAlign=middle;fontStyle=1;strokeWidth=3;fillColor=#FFFFCC" vertex="1" parent="1">
          <mxGeometry x="-10" y="140" width="90" height="60" as="geometry" />
        </mxCell>
        <mxCell id="USOq1w8gxivl_0exyOVE-101" value="" style="edgeStyle=orthogonalEdgeStyle;strokeWidth=2;exitX=1;exitY=0.25;exitDx=0;exitDy=0;rounded=1;entryX=-0.009;entryY=0.689;entryDx=0;entryDy=0;entryPerimeter=0;" edge="1" parent="1" source="USOq1w8gxivl_0exyOVE-99" target="2">
          <mxGeometry width="100" height="100" relative="1" as="geometry">
            <mxPoint x="125" y="155" as="sourcePoint" />
            <mxPoint x="280" y="100" as="targetPoint" />
          </mxGeometry>
        </mxCell>
        <mxCell id="USOq1w8gxivl_0exyOVE-120" value="Coal" style="edgeLabel;html=1;align=center;verticalAlign=middle;resizable=0;points=[];fontSize=13;" vertex="1" connectable="0" parent="USOq1w8gxivl_0exyOVE-101">
          <mxGeometry x="0.1736" y="-2" relative="1" as="geometry">
            <mxPoint as="offset" />
          </mxGeometry>
        </mxCell>
        <mxCell id="USOq1w8gxivl_0exyOVE-131" style="edgeStyle=orthogonalEdgeStyle;rounded=1;orthogonalLoop=1;jettySize=auto;html=1;exitX=1;exitY=0.75;exitDx=0;exitDy=0;entryX=0;entryY=0.25;entryDx=0;entryDy=0;strokeColor=#000000;strokeWidth=2;fontSize=13;" edge="1" parent="1" source="USOq1w8gxivl_0exyOVE-130" target="10">
          <mxGeometry relative="1" as="geometry">
            <mxPoint x="50" y="623.72" as="sourcePoint" />
            <mxPoint x="330" y="596.22" as="targetPoint" />
          </mxGeometry>
        </mxCell>
        <mxCell id="USOq1w8gxivl_0exyOVE-132" value="Multi-Phase Oil" style="edgeLabel;html=1;align=center;verticalAlign=middle;resizable=0;points=[];fontSize=13;" vertex="1" connectable="0" parent="USOq1w8gxivl_0exyOVE-131">
          <mxGeometry x="-0.7427" y="-1" relative="1" as="geometry">
            <mxPoint x="146" y="-26" as="offset" />
          </mxGeometry>
        </mxCell>
        <mxCell id="USOq1w8gxivl_0exyOVE-130" value="Oil Well" style="whiteSpace=wrap;align=center;verticalAlign=middle;fontStyle=1;strokeWidth=3;fillColor=#FFFFCC" vertex="1" parent="1">
          <mxGeometry x="-30" y="580" width="90" height="60" as="geometry" />
        </mxCell>
      </root>
    </mxGraphModel>
  </diagram>
</mxfile>
